<?xml version="1.0" encoding="UTF-8"?>
<svg id="Layer_1" xmlns="http://www.w3.org/2000/svg" version="1.1" xmlns:xlink="http://www.w3.org/1999/xlink" viewBox="0 0 595.28 388">
  <!-- Generator: Adobe Illustrator 29.3.1, SVG Export Plug-In . SVG Version: 2.1.0 Build 151)  -->
  <defs>
    <style>
      .st0 {
        fill: url(#linear-gradient2);
      }

      .st1 {
        fill: url(#linear-gradient10);
      }

      .st2 {
        fill: url(#linear-gradient21);
      }

      .st3 {
        fill: url(#linear-gradient1);
      }

      .st4 {
        fill: url(#linear-gradient9);
      }

      .st5 {
        fill: url(#linear-gradient18);
      }

      .st6 {
        fill: url(#linear-gradient8);
      }

      .st7 {
        fill: url(#linear-gradient11);
      }

      .st8 {
        fill: url(#linear-gradient16);
      }

      .st9 {
        fill: url(#linear-gradient22);
      }

      .st10 {
        fill: url(#linear-gradient19);
      }

      .st11 {
        fill: url(#linear-gradient12);
      }

      .st12 {
        fill: #be9c7e;
      }

      .st13 {
        fill: url(#linear-gradient7);
      }

      .st14 {
        fill: url(#linear-gradient20);
      }

      .st15 {
        fill: url(#linear-gradient4);
      }

      .st16 {
        fill: url(#linear-gradient14);
      }

      .st17 {
        fill: url(#linear-gradient5);
      }

      .st18 {
        fill: url(#linear-gradient3);
      }

      .st19 {
        fill: url(#linear-gradient15);
      }

      .st20 {
        fill: url(#linear-gradient17);
      }

      .st21 {
        fill: url(#linear-gradient6);
      }

      .st22 {
        fill: url(#linear-gradient13);
      }

      .st23 {
        fill: url(#linear-gradient);
      }
    </style>
    <linearGradient id="linear-gradient" x1="-19.92" y1="42.69" x2="620.65" y2="464.61" gradientUnits="userSpaceOnUse">
      <stop offset="0" stop-color="#be9c7e"/>
      <stop offset=".22" stop-color="#bf9d7f"/>
      <stop offset=".3" stop-color="#c6a486"/>
      <stop offset=".36" stop-color="#d1b090"/>
      <stop offset=".38" stop-color="#d9b898"/>
      <stop offset=".56" stop-color="#c5a384"/>
      <stop offset=".68" stop-color="#be9c7e"/>
      <stop offset=".87" stop-color="#bf9d7f"/>
      <stop offset=".93" stop-color="#c6a486"/>
      <stop offset=".98" stop-color="#d1b090"/>
      <stop offset="1" stop-color="#d9b898"/>
    </linearGradient>
    <linearGradient id="linear-gradient1" x1="79.15" y1="-107.72" x2="719.72" y2="314.2" xlink:href="#linear-gradient"/>
    <linearGradient id="linear-gradient2" x1="25.5" y1="-26.26" x2="666.06" y2="395.66" xlink:href="#linear-gradient"/>
    <linearGradient id="linear-gradient3" x1="40.07" y1="-48.37" x2="680.63" y2="373.54" xlink:href="#linear-gradient"/>
    <linearGradient id="linear-gradient4" x1="24.29" y1="-24.43" x2="664.86" y2="397.49" xlink:href="#linear-gradient"/>
    <linearGradient id="linear-gradient5" x1="38.22" y1="-45.58" x2="678.79" y2="376.34" xlink:href="#linear-gradient"/>
    <linearGradient id="linear-gradient6" x1="-5.51" y1="20.82" x2="635.06" y2="442.73" xlink:href="#linear-gradient"/>
    <linearGradient id="linear-gradient7" x1="-5.65" y1="21.03" x2="634.91" y2="442.95" xlink:href="#linear-gradient"/>
    <linearGradient id="linear-gradient8" x1="-196.24" y1="56.75" x2="547.67" y2="536.21" xlink:href="#linear-gradient"/>
    <linearGradient id="linear-gradient9" x1="-202.79" y1="66.92" x2="541.12" y2="546.37" xlink:href="#linear-gradient"/>
    <linearGradient id="linear-gradient10" x1="-193.86" y1="53.07" x2="550.05" y2="532.53" xlink:href="#linear-gradient"/>
    <linearGradient id="linear-gradient11" x1="-188.6" y1="44.9" x2="555.31" y2="524.35" xlink:href="#linear-gradient"/>
    <linearGradient id="linear-gradient12" x1="-191.72" y1="49.75" x2="552.18" y2="529.21" xlink:href="#linear-gradient"/>
    <linearGradient id="linear-gradient13" x1="-175.24" y1="24.18" x2="568.67" y2="503.64" xlink:href="#linear-gradient"/>
    <linearGradient id="linear-gradient14" x1="-174.88" y1="23.62" x2="569.03" y2="503.07" xlink:href="#linear-gradient"/>
    <linearGradient id="linear-gradient15" x1="-172.87" y1="20.5" x2="571.04" y2="499.95" xlink:href="#linear-gradient"/>
    <linearGradient id="linear-gradient16" x1="-150.3" y1="-14.53" x2="593.61" y2="464.93" xlink:href="#linear-gradient"/>
    <linearGradient id="linear-gradient17" x1="-141.03" y1="-28.9" x2="602.88" y2="450.55" xlink:href="#linear-gradient"/>
    <linearGradient id="linear-gradient18" x1="-136.69" y1="-35.63" x2="607.22" y2="443.82" xlink:href="#linear-gradient"/>
    <linearGradient id="linear-gradient19" x1="-106.96" y1="-81.77" x2="636.95" y2="397.69" xlink:href="#linear-gradient"/>
    <linearGradient id="linear-gradient20" x1="-116.87" y1="-66.4" x2="627.04" y2="413.06" xlink:href="#linear-gradient"/>
    <linearGradient id="linear-gradient21" x1="-118.42" y1="-63.98" x2="625.49" y2="415.47" xlink:href="#linear-gradient"/>
    <linearGradient id="linear-gradient22" x1="-81.41" y1="-121.41" x2="662.5" y2="358.05" xlink:href="#linear-gradient"/>
  </defs>
  <g>
    <path class="st23" d="M153.86,154.13c0-9.63-.02-19.26,0-28.89.01-4.05,1.16-5.2,5.14-5.22,4.35-.03,8.69-.02,13.04,0,4.5.01,5.51,1,5.51,5.43,0,14.7,0,29.4,0,44.1,0,4.61,1.22,5.8,5.91,5.82q9.31.04,9.31-9.23c0-13.25,0-26.5,0-39.76,0-5.69.7-6.37,6.5-6.37,4.04,0,8.07-.02,12.11,0,3.92.03,5.18,1.28,5.19,5.21.02,14.7,0,29.4,0,44.1,0,5,1.01,6.03,5.9,6.04,7.85.02,8.28-.4,8.28-8.15,0-13.87,0-27.75,0-41.62,0-4.71.89-5.58,5.64-5.59,4.45,0,8.9-.04,13.35.01,3.37.04,4.67,1.35,4.68,4.74.02,14.7.13,29.4-.04,44.1-.2,17.38-14.44,31.03-32.46,31.17-15.32.12-30.63.1-45.95-.03-3.04-.03-5.03.94-6.64,3.51-3.45,5.51-8,9.75-14.59,11.21-1.49.33-3.06.48-4.59.49-18.21.03-36.43.06-54.64,0-14.81-.04-27.9-13.15-27.97-28.02-.06-12.94-.05-25.88,0-38.82.05-14.66,12.61-27.87,27.21-28.28,10.75-.3,21.52-.07,32.29-.1,2.91,0,4.08,1.49,4.07,4.26-.03,5.38.04,10.77-.02,16.15-.04,3.26-.99,4.18-4.4,4.2-9.11.05-18.21.01-27.32.02-6.03,0-8.21,2.2-8.22,8.24,0,10.04-.02,20.08,0,30.13.01,5.41,2.35,7.79,7.74,7.8,15.73.02,31.46.02,47.19,0,5.39,0,7.73-2.38,7.74-7.79.02-9.63,0-19.26,0-28.89Z"/>
    <path class="st3" d="M473.18,114.83c7.82,0,14.85,0,21.88,0,10.35,0,20.71.23,31.05-.05,19-.52,31.3,15.5,31.36,31.56.04,9.1.38,18.27-.57,27.28-1.52,14.47-14.33,27.02-30.96,26.8-33.84-.45-67.69-.41-101.53,0-13.77.16-25.59-10.62-25.75-25.4-.3-27.95-.1-55.91-.08-83.86,0-3.96,1.96-5.78,6-5.82,3.73-.04,7.45-.02,11.18,0,4.83.02,6.53,1.68,6.53,6.53.02,23.5-.01,47.01.05,70.51,0,2.03.22,4.2.95,6.06,1.43,3.66,4.23,5.83,8.33,5.83,30.84.01,61.68.03,92.52-.01,4.68,0,8.7-3.23,9.17-8.04.52-5.43.61-10.97.16-16.39-.49-5.85-4.62-9.09-10.58-9.09-25.46-.02-50.92,0-76.38-.01-5.82,0-7.06-1.24-7.08-7.12-.07-18.34-.73-18.63,12.51-32.56,4.28-4.5,8.42-9.13,12.6-13.73,3.25-3.59,7.17-5.39,12.09-5.16,6.92.32,13.86.42,20.79.69.94.04,1.87.52,2.8.8-.44.97-.67,2.12-1.35,2.87-7.72,8.51-15.51,16.96-23.27,25.43-.68.74-1.29,1.53-2.43,2.88Z"/>
    <path class="st0" d="M324.15,120.72c13.83,2.28,24.8,14.59,25.38,28.63.34,8.02.6,16.25-.76,24.1-2.54,14.61-15.77,24.86-30.56,24.96-7.35.05-14.69.03-22.04,0-17.32-.07-31.27-13.34-31.83-30.7-.24-7.52-.48-15.22.81-22.57,2.57-14.7,15.57-24.91,30.5-25.11,3.83-.05,22.93-.23,28.49.69ZM306.8,177.22c2.48,0,4.96.1,7.44-.02,6.98-.34,11.71-5.27,11.76-12.21.03-4.13.09-8.27-.02-12.4-.17-6.09-4.96-11.06-11.02-11.27-5.26-.18-10.54-.18-15.8,0-5.96.19-10.79,4.9-11.1,10.88-.24,4.64-.21,9.31-.02,13.95.22,5.32,3.95,9.67,9.21,10.61,3.12.56,9.55.55,9.56.48Z"/>
    <path class="st18" d="M387.54,159.83c0,10.76-.26,21.54.07,32.29.38,12.53-10.32,22.83-23.06,23.07-3.83.07-7.66.05-11.48,0-3.25-.05-4.69-1.51-4.72-4.76-.04-4.14-.03-8.28,0-12.42.02-3.5,1.54-5,5.12-5.12.72-.02,1.45,0,2.17,0,5.2-.09,8.21-3.11,8.22-8.38.02-19.56,0-39.13,0-58.69,0-4.72.9-5.64,5.56-5.65,4.45-.02,8.9-.04,13.35.01,3.67.05,4.76,1.18,4.77,4.87.02,11.59,0,23.19,0,34.78Z"/>
    <path class="st15" d="M182.03,106.03c-3.96-.02-5.15-1.25-5.18-5.21-.03-4.55-.04-9.1,0-13.66.03-3.26,1.44-4.82,4.7-4.83,15.2-.06,30.4-.06,45.61,0,3.4.01,4.91,1.61,4.94,4.98.05,4.65.06,9.31,0,13.97-.05,3.25-1.51,4.72-4.77,4.75-7.65.06-37.85.05-45.3.01Z"/>
    <path class="st17" d="M193,56.15c.04-2.47,1.33-3.91,3.8-3.94,5.06-.07,10.12-.05,15.18,0,2.61.02,3.71,1.77,3.77,4.04.13,5.06.14,10.13,0,15.18-.08,2.82-1.78,4.29-4.64,4.3-4.54.01-9.09.09-13.63-.03-3.16-.08-4.42-1.5-4.49-4.67-.05-2.38-.01-4.75-.01-7.13,0,0-.02-5.17.02-7.75Z"/>
    <path class="st21" d="M127.31,100.41c-.03,7.27-5.16,12.57-12.15,12.53-6.79-.04-12.23-5.76-12.09-12.72.14-6.93,5.46-12.37,12.12-12.39,6.93-.02,12.13,5.39,12.11,12.58ZM105.94,100.16c-.06,5.61,3.95,9.96,9.23,9.99,5.11.02,9.37-4.25,9.48-9.51.12-5.49-4-9.88-9.31-9.93-5.26-.05-9.34,4.05-9.4,9.45Z"/>
    <path class="st13" d="M113.34,101.06v5.5h-2.24v-12.87h5.01c2.38,0,4.06,1.18,4.06,3.42,0,1.79-.99,2.63-2.04,3.01,1.3.47,1.8,1.5,1.8,3.15v.3c0,1.16.05,2.25.17,2.99h-2.2c-.18-.53-.23-1.51-.23-3.01v-.31c0-1.59-.58-2.18-2.41-2.18h-1.92ZM113.34,99.23h2.1c1.39,0,2.47-.38,2.47-1.94,0-1.25-.88-1.79-2.1-1.79h-2.47v3.72Z"/>
  </g>
  <g>
    <path class="st6" d="M82.49,240.74c.34.34.74.61,1.19.81.45.2.94.3,1.47.3s.99-.1,1.44-.3c.44-.19.84-.46,1.19-.81.34-.34.61-.74.81-1.19.2-.45.3-.94.3-1.47s-.1-.99-.3-1.44c-.19-.45-.47-.84-.81-1.19-.34-.34-.74-.61-1.19-.81-.92-.4-2.02-.38-2.91,0-.44.19-.84.47-1.19.81s-.61.74-.81,1.19c-.2.45-.3.93-.3,1.44s.1,1.02.3,1.47c.19.44.46.84.81,1.19Z"/>
    <path class="st4" d="M108.23,263.2h-29.26c-1.96,0-3.6-.06-4.87-.18-1.22-.12-2.2-.36-2.9-.74-.67-.36-1.13-.85-1.39-1.52-.28-.7-.42-1.68-.42-2.89v-8.23h-6.18v10.08c0,1.69.21,3.15.63,4.34.43,1.23,1.18,2.26,2.22,3.04,1.02.77,2.39,1.33,4.06,1.66,1.63.33,3.69.5,6.12.5h38.17v-24.85h-6.18v18.79Z"/>
    <path class="st1" d="M90.58,240.74c.34.34.74.61,1.19.81.45.2.94.3,1.47.3s.99-.1,1.44-.3c.44-.19.84-.46,1.19-.81s.61-.74.81-1.19c.2-.45.3-.94.3-1.47s-.1-.99-.3-1.44c-.19-.44-.47-.84-.81-1.19s-.74-.61-1.19-.81c-.92-.4-2.02-.38-2.91,0-.44.19-.84.47-1.19.81-.34.34-.61.74-.81,1.19-.2.45-.3.93-.3,1.44s.1,1.02.3,1.47c.19.44.47.84.81,1.19Z"/>
    <rect class="st7" x="122.04" y="224.93" width="6.18" height="44.33"/>
    <path class="st11" d="M141.04,265.08c0,2.09-.05,3.91-.14,5.4-.09,1.45-.32,2.66-.7,3.58-.36.88-.9,1.52-1.64,1.94-.76.43-1.85.64-3.25.64h-2.51v6.06h2.3c2.39,0,4.4-.31,5.95-.91,1.59-.62,2.86-1.64,3.78-3.03.9-1.37,1.53-3.14,1.88-5.28.34-2.1.51-4.7.51-7.73v-21.33h-6.18v20.66Z"/>
    <path class="st22" d="M222.7,276.32h0c-.34-.34-.74-.61-1.19-.81-.92-.4-2.03-.38-2.91,0-.44.19-.84.46-1.19.81-.34.34-.61.74-.81,1.19-.2.45-.3.93-.3,1.44s.1,1.02.3,1.47c.19.44.46.84.81,1.19.34.34.74.61,1.19.81.45.2.94.3,1.47.3s.99-.1,1.44-.3c.45-.19.84-.47,1.19-.81.34-.34.61-.74.81-1.19.2-.45.3-.94.3-1.47s-.1-.99-.3-1.44c-.19-.44-.47-.84-.81-1.19Z"/>
    <path class="st16" d="M229.55,244.42h-6.18v18.79h-9.07c-.72,0-1.35-.12-1.88-.37-.53-.24-1.01-.62-1.43-1.13-.44-.52-.85-1.2-1.23-2.01-.39-.84-.79-1.84-1.18-2.97-.41-1.22-1.04-2.52-1.85-3.87-.81-1.35-1.87-2.72-3.13-4.07-1.26-1.35-2.77-2.68-4.5-3.95-1.54-1.13-3.29-2.19-5.22-3.15l14.27-8.77v-7.15l-21.11,13.71v6.02l.28.11c2.06.82,4.05,1.82,5.94,2.96,1.88,1.15,3.57,2.37,5.01,3.65,1.43,1.26,2.59,2.57,3.43,3.89.82,1.28,1.24,2.5,1.24,3.62s-.36,1.91-1.1,2.53c-.76.63-2.05.95-3.84.95h-18.8v-3.02c0-2.47-.21-4.75-.63-6.76-.42-2.04-1.12-3.82-2.07-5.27-.96-1.48-2.24-2.63-3.8-3.42-1.56-.79-3.48-1.19-5.7-1.19-1.99,0-3.8.4-5.38,1.19-1.58.78-2.93,1.84-4.02,3.14-1.08,1.29-1.92,2.79-2.5,4.44-.57,1.65-.86,3.38-.86,5.15,0,2.08.31,3.88.93,5.37.62,1.5,1.5,2.74,2.61,3.69,1.11.95,2.43,1.65,3.92,2.09,1.47.44,3.09.66,4.81.66h6.56c-.07,1.39-.32,2.56-.73,3.48-.45.98-1.16,1.77-2.13,2.34-1,.59-2.33,1-3.96,1.22-1.67.23-3.74.35-6.16.35h-2.36v6.06h3.06c3.04,0,5.69-.23,7.89-.69,2.23-.47,4.11-1.25,5.58-2.33,1.49-1.09,2.63-2.54,3.41-4.32.73-1.66,1.19-3.71,1.38-6.1h19.35c.89,0,1.79-.06,2.69-.19.92-.13,1.8-.37,2.62-.73.83-.36,1.6-.87,2.29-1.51.5-.47.94-1.05,1.32-1.72.75,1.33,1.62,2.33,2.58,2.98,1.15.78,2.63,1.17,4.4,1.17h15.25v-24.85ZM166.62,249.35c1.18,0,2.18.22,3,.66.81.44,1.47,1.07,1.98,1.88.52.83.9,1.86,1.13,3.04.24,1.21.36,2.58.36,4.06v4.21h-6.21c-2.2,0-3.9-.56-5.04-1.67-1.14-1.1-1.72-2.65-1.72-4.61,0-.93.14-1.86.41-2.76.27-.9.67-1.71,1.21-2.43.53-.7,1.2-1.29,2.02-1.73.8-.44,1.77-.66,2.89-.66Z"/>
    <path class="st19" d="M230.78,276.32c-.34-.34-.74-.61-1.19-.81-.92-.4-2.03-.38-2.91,0-.44.19-.84.47-1.19.81-.34.34-.61.74-.81,1.19-.2.45-.3.93-.3,1.44s.1,1.02.3,1.47c.19.44.46.84.81,1.19.34.34.74.61,1.19.81.45.2.94.3,1.47.3s.99-.1,1.44-.3c.45-.19.84-.47,1.19-.81.34-.34.61-.74.81-1.19.2-.45.3-.94.3-1.47s-.1-.99-.3-1.44c-.19-.44-.47-.84-.81-1.19Z"/>
    <path class="st8" d="M270.31,263.2h-7.19c-.49,0-.93-.13-1.36-.4-.45-.29-.94-.75-1.44-1.36-.52-.64-1.11-1.46-1.73-2.44s-1.38-2.17-2.2-3.52l-7.81-12.7-5.35,3.37,8.24,12.88c.24.38.46.83.65,1.35.17.48.22.94.15,1.37-.07.39-.31.71-.75,1-.46.3-1.27.46-2.42.46h-14.34v6.06h14.67c.7,0,1.4-.04,2.07-.11.7-.07,1.37-.24,1.99-.5.63-.26,1.23-.65,1.77-1.15.39-.36.75-.8,1.08-1.32.64.91,1.44,1.63,2.39,2.15,1.15.62,2.63.93,4.38.93h13.37v-44.33h-6.18v38.28Z"/>
    <rect class="st20" x="284.11" y="224.93" width="6.18" height="44.33"/>
    <path class="st5" d="M339.09,248.28c-.96-1.49-2.24-2.66-3.8-3.5-1.56-.83-3.5-1.25-5.77-1.25-2.05,0-3.89.4-5.47,1.19-1.58.78-2.92,1.83-4,3.11-1.08,1.27-1.9,2.75-2.45,4.4-.55,1.64-.83,3.33-.83,5.04,0,2.12.31,3.95.91,5.46.61,1.52,1.47,2.78,2.55,3.75,1.08.97,2.36,1.69,3.82,2.13,1.43.44,2.99.66,4.63.66,1.8,0,3.35-.2,4.59-.6.9-.29,1.69-.59,2.35-.91v1.06c0,1.59-.23,2.91-.68,3.92-.44.98-1.15,1.77-2.13,2.33-1.01.59-2.36,1-4,1.22-1.69.23-3.77.35-6.19.35h-2.36v6.06h3.06c3.04,0,5.73-.24,7.99-.71,2.31-.48,4.26-1.33,5.79-2.53,1.55-1.21,2.72-2.85,3.49-4.87.76-2,1.14-4.54,1.14-7.56v-6.84c0-2.39-.2-4.62-.6-6.62-.4-2.03-1.09-3.81-2.04-5.28ZM329.28,249.35c1.17,0,2.16.24,2.95.71.79.48,1.45,1.14,1.94,1.97.51.85.88,1.88,1.1,3.05.23,1.2.34,2.51.34,3.92v2.63c-.58.41-1.41.8-2.45,1.16-1.15.4-2.5.6-4.01.6-.98,0-1.88-.14-2.68-.43-.79-.28-1.47-.7-2.03-1.24-.56-.54-1-1.23-1.32-2.06-.32-.84-.49-1.83-.49-2.97,0-.81.13-1.66.38-2.54.25-.87.64-1.67,1.16-2.38.52-.7,1.2-1.29,2.04-1.74.83-.45,1.86-.68,3.06-.68Z"/>
    <path class="st10" d="M380.98,237.06h0c.34.34.74.61,1.19.81.45.2.94.3,1.47.3s.99-.1,1.44-.3c.44-.19.84-.46,1.19-.81.34-.34.61-.74.81-1.19.2-.45.3-.94.3-1.47s-.1-.99-.3-1.44c-.19-.44-.47-.84-.81-1.19-.34-.34-.74-.61-1.19-.81-.92-.4-2.02-.38-2.91,0-.44.19-.84.47-1.19.81s-.61.74-.81,1.19c-.2.45-.3.93-.3,1.44s.1,1.02.3,1.47c.19.44.47.84.81,1.19Z"/>
    <path class="st14" d="M411.26,263.2h-12.17c-.09-2.54-.48-4.99-1.16-7.27-.72-2.43-1.85-4.59-3.33-6.42-1.5-1.84-3.42-3.31-5.72-4.38-2.3-1.07-5.06-1.61-8.21-1.61-1.67,0-3.22.16-4.61.47-1.37.3-2.49.59-3.31.86l-.31.1v5.9l.57-.16c.41-.12.91-.24,1.48-.37.56-.13,1.16-.24,1.78-.34.62-.1,1.26-.18,1.9-.24.64-.06,1.27-.09,1.86-.09,1.77,0,3.46.25,5.02.75,1.54.49,2.9,1.29,4.04,2.38,1.14,1.08,2.06,2.53,2.73,4.3.64,1.68.98,3.74,1.02,6.12h-15.33c-1.79,0-3.45.17-4.95.5-1.52.33-2.85.87-3.96,1.6-1.13.74-2.03,1.71-2.66,2.88-.63,1.17-.95,2.6-.95,4.22,0,1.22.29,2.43.87,3.61.57,1.17,1.4,2.3,2.47,3.36,1.06,1.05,2.39,2.07,3.94,3.01,1.55.94,3.34,1.82,5.34,2.62l.37.15,2.9-5.45-.43-.19c-1.38-.62-2.66-1.25-3.8-1.86-1.13-.61-2.12-1.22-2.92-1.82-.79-.59-1.42-1.19-1.85-1.78-.41-.55-.61-1.09-.61-1.65s.12-1,.36-1.37c.24-.38.59-.71,1.02-.97.45-.27,1.01-.47,1.64-.6.66-.14,1.38-.2,2.16-.2h41v-24.85h-6.18v18.79Z"/>
    <path class="st2" d="M416.03,276.13c-.34-.34-.74-.61-1.19-.81-.92-.4-2.03-.38-2.91,0-.44.19-.84.47-1.19.81-.34.34-.61.74-.81,1.19-.2.45-.3.93-.3,1.44s.1,1.02.3,1.47c.19.45.47.84.81,1.19.34.34.74.61,1.19.81.45.2.94.3,1.47.3s.99-.1,1.44-.3c.44-.19.84-.47,1.19-.81.34-.34.61-.74.81-1.19.2-.45.3-.94.3-1.47s-.1-.99-.3-1.44c-.19-.45-.47-.84-.81-1.19Z"/>
    <path class="st9" d="M543.93,224.93v38.28h-7.19c-1.03,0-1.88-.15-2.54-.45-.64-.29-1.16-.7-1.54-1.22-.39-.53-.66-1.2-.82-1.99-.17-.82-.25-1.74-.25-2.74v-31.88h-6.24v34.19c0,.97-.11,1.75-.33,2.3-.21.52-.5.92-.86,1.17-.37.26-.85.43-1.4.5-.61.08-1.28.12-2.01.12h-3.04c-.87,0-1.62-.3-2.3-.92-.68-.62-1.22-1.53-1.6-2.73.04-.36.06-.73.08-1.09.02-.4.03-.8.03-1.21,0-1.81-.29-3.48-.85-4.96-.57-1.49-1.37-2.79-2.39-3.86-1.02-1.07-2.25-1.91-3.66-2.49-1.41-.58-2.97-.87-4.64-.87-1.17,0-2.41.18-3.69.53-1.3.36-2.58,1.03-3.82,1.99-1.23.96-2.39,2.28-3.46,3.92-1.06,1.64-1.98,3.77-2.71,6.34-.35,1.21-.75,2.18-1.17,2.89-.42.69-.85,1.23-1.3,1.59-.43.35-.87.58-1.3.69-.46.11-.92.17-1.37.17h-4.51v-4.91c0-2.27-.31-4.33-.92-6.15-.62-1.82-1.52-3.39-2.68-4.66-1.16-1.27-2.61-2.26-4.3-2.94-1.68-.68-3.61-1.02-5.75-1.02-3.47,0-6.69.87-9.58,2.59-2.54,1.51-4.88,3.78-6.97,6.76v-27.96h-6.18v38.28h-7.46c-.89,0-1.6-.08-2.14-.24-.49-.15-.87-.38-1.14-.7-.27-.32-.46-.75-.56-1.28-.11-.58-.16-1.3-.16-2.14v-33.92h-6.18v35.29c0,1.69.23,3.13.68,4.28.46,1.17,1.12,2.12,1.95,2.83.83.71,1.84,1.22,2.99,1.51,1.12.28,2.38.42,3.73.42h49.28c.76,0,1.47-.03,2.1-.09.66-.06,1.3-.22,1.89-.47.6-.25,1.19-.64,1.75-1.14.47-.42.95-.98,1.42-1.66,1.03.74,2.03,1.38,2.96,1.89,1.05.58,2.07,1.04,3.03,1.38.96.34,1.91.58,2.8.72.89.13,1.77.2,2.62.2,2.44,0,4.5-.46,6.15-1.38,1.41-.79,2.56-1.85,3.43-3.17.67,1.2,1.48,2.11,2.39,2.69,1.09.69,2.26,1.04,3.48,1.04h4.56c.7,0,1.46-.04,2.25-.12.81-.08,1.61-.26,2.37-.52.77-.27,1.5-.64,2.16-1.12.49-.35.93-.79,1.29-1.31.21.3.45.59.72.85.46.45,1,.85,1.6,1.18.6.33,1.26.59,1.96.77.7.18,1.41.27,2.12.27h13.37v-44.33h-6.18ZM502.09,251.08c.9,0,1.72.16,2.42.48.69.32,1.28.77,1.76,1.34.48.58.84,1.29,1.09,2.11.25.84.38,1.78.38,2.81,0,2.19-.5,3.77-1.5,4.69-1,.93-2.43,1.4-4.23,1.4-1.34,0-2.76-.28-4.22-.84-1.39-.53-2.74-1.29-4.03-2.27.42-1.67.92-3.12,1.48-4.32.59-1.25,1.25-2.3,1.97-3.1.7-.79,1.48-1.38,2.3-1.74.82-.37,1.69-.55,2.6-.55ZM460.95,250.1c1.16-.38,2.38-.57,3.65-.57,1.69,0,3.08.26,4.14.76,1.05.5,1.9,1.17,2.51,1.98.62.82,1.04,1.77,1.27,2.83.24,1.1.36,2.24.36,3.37v4.72h-23.84c.33-.94.73-1.89,1.2-2.84.57-1.14,1.23-2.26,1.97-3.32.74-1.06,1.58-2.06,2.49-2.97.91-.91,1.89-1.71,2.94-2.39,1.04-.67,2.15-1.21,3.32-1.59Z"/>
  </g>
  <g>
    <path class="st12" d="M248.56,311.63c.03-2.11-.16-4.19-2.58-4.19-1.48,0-2.43.6-2.43,2.2,0,1.8,1.13,2.49,2.52,3.37,1.45.91,4.13,2.68,5.35,3.87,1.51,1.48,1.98,2.9,1.98,4.95,0,4.47-2.96,6.8-7.28,6.8-5.29,0-7.18-2.96-7.18-7.18v-1.73h4.41v1.39c-.09,2.3.6,3.97,2.77,3.97,1.86,0,2.74-.98,2.74-2.77,0-1.39-.63-2.33-1.76-3.12-2.3-1.8-5.17-3.09-6.96-5.45-.72-1.07-1.13-2.36-1.13-3.62,0-4.03,2.27-6.24,6.93-6.24,7.02,0,6.84,5.42,6.87,7.75h-4.25Z"/>
    <path class="st12" d="M257.1,328.07v-23.63h4.41v23.63h-4.41Z"/>
    <path class="st12" d="M276.38,304.45h4.41v23.63h-4.6l-3.43-8.41c-1.17-2.8-2.11-5.67-3.15-9.39h-.06c.16,1.95.35,4.35.47,6.74.13,2.36.22,4.73.22,6.62v4.44h-4.41v-23.63h4.57l3.43,8.6c1.13,2.74,2.08,5.54,3.15,9.39h.06c-.16-2.14-.31-4.44-.44-6.71s-.22-4.54-.22-6.65v-4.63Z"/>
    <path class="st12" d="M299.07,319.66c-.03.44-.06.91-.09,1.35-.22,4.32-1.67,7.62-6.58,7.62-7.25,0-7.72-4.6-7.72-10.9v-3.37c.19-6.02.66-10.49,7.72-10.49,3.94.06,6.14,2.08,6.46,6.11.06.6.13,1.2.09,1.8h-4.35c-.19-1.51-.03-4.35-2.2-4.35-3.46,0-3.18,4.13-3.18,5.95v6.55c0,1.95.16,5.13,3.18,5.13,2.43,0,2.14-3.91,2.24-5.42h4.44Z"/>
    <path class="st12" d="M302.47,328.07v-23.63h12.41v3.46h-8v5.95h7.37v3.46h-7.37v7.28h8v3.46h-12.41Z"/>
    <path class="st12" d="M325.09,328.07c.03-1.01.16-2.65.38-4,.28-1.64,1.45-3.78,4.16-6.65l2.14-2.27c1.42-1.54,2.17-2.3,2.17-4.54s-.85-2.8-2.11-2.8c-.91,0-1.73.28-2.05,1.17-.44,1.04-.31,2.24-.35,3.34h-4.13v-.66c0-2.08-.09-7.37,6.71-7.31,3.72.03,6.33,2.33,6.33,6.11,0,2.61-.98,4.6-2.8,6.46l-3.46,3.59c-.91.94-2.27,2.49-2.3,4.09h8.22v3.46h-12.92Z"/>
    <path class="st12" d="M341.35,311.12c0-5.01,2.39-6.77,6.39-6.77s6.36,1.76,6.36,6.77v10.62c0,5.01-2.39,6.8-6.39,6.8s-6.36-1.8-6.36-6.8v-10.62ZM345.76,321.74c-.13,2.65.79,3.34,1.92,3.34s2.14-.69,2.02-3.34v-10.62c.13-2.61-.85-3.31-2.02-3.31s-2.05.69-1.92,3.31v10.62Z"/>
    <path class="st12" d="M357.1,311.12c0-5.01,2.39-6.77,6.39-6.77s6.36,1.76,6.36,6.77v10.62c0,5.01-2.39,6.8-6.39,6.8s-6.36-1.8-6.36-6.8v-10.62ZM361.51,321.74c-.13,2.65.79,3.34,1.92,3.34s2.14-.69,2.02-3.34v-10.62c.13-2.61-.85-3.31-2.02-3.31s-2.05.69-1.92,3.31v10.62Z"/>
    <path class="st12" d="M384.13,304.82v14.99h2.02v3.46h-2.02v4.79h-4.41v-4.79h-7.65v-3.46l7.15-14.99h4.91ZM379.72,319.82v-9.58h-.06l-4.35,9.58h4.41Z"/>
  </g>
</svg>