<svg width="7118" height="2563" viewBox="0 0 7118 2563" fill="none" xmlns="http://www.w3.org/2000/svg">
<path d="M5942.5 273.062C5932.36 273.062 5924.15 281.283 5924.15 291.42V1379.62C5924.15 1389.76 5932.36 1397.98 5942.5 1397.98H6125.89C6136.02 1397.98 6144.24 1389.76 6144.24 1379.62V992.612C6144.24 963.249 6168.04 939.449 6197.4 939.449H6830.83C6860.19 939.449 6883.99 963.249 6883.99 992.608V1385.74C6883.99 1395.87 6892.21 1404.09 6902.35 1404.09H7085.73C7095.87 1404.09 7104.08 1395.87 7104.08 1385.74V297.527C7104.08 287.39 7095.87 279.173 7085.73 279.173H6902.35C6892.21 279.173 6883.99 287.39 6883.99 297.528V666.198C6883.99 695.557 6860.19 719.357 6830.83 719.357H6197.4C6168.04 719.357 6144.24 695.557 6144.24 666.198V291.415C6144.24 281.278 6136.02 273.057 6125.89 273.057H5942.5V273.062Z" fill="url(#paint0_linear_1792_1892)"/>
<path d="M4882.15 279.172C4738.44 279.172 4621.94 395.943 4621.94 539.989V684.747C4621.94 828.793 4738.44 945.563 4882.15 945.563H5484.08C5519.97 945.563 5549.06 974.718 5549.06 1010.68L5549.06 1106.64C5549.06 1142.61 5519.97 1171.77 5484.08 1171.77H4701.48C4684.5 1171.77 4670.74 1185.56 4670.74 1202.58V1361.04C4670.74 1378.06 4684.5 1391.86 4701.48 1391.86H5516.87C5661.86 1391.86 5778.64 1272.62 5775.95 1127.32L5773.32 984.831C5770.72 843.952 5656.52 730.846 5515.95 729.917L4906.07 725.896C4870.35 725.659 4841.52 696.571 4841.52 660.771V564.393C4841.52 528.422 4870.61 499.264 4906.5 499.264H5689.1C5706.08 499.264 5719.85 485.468 5719.85 468.447V309.989C5719.85 292.968 5706.08 279.172 5689.1 279.172H4882.15Z" fill="url(#paint1_linear_1792_1892)"/>
<path d="M3685.98 276.121C3426.31 276.121 3215.8 486.625 3215.8 746.3V918.625C3215.8 1178.3 3426.31 1388.81 3685.98 1388.81L4072.22 1388.8C4089.23 1388.81 4103.04 1375.07 4103.08 1358.06C4103.17 1314.86 4103.33 1236.67 4103.43 1193.44C4103.46 1176.4 4089.66 1162.6 4072.62 1162.6H3677.87C3544.23 1162.6 3435.89 1054.26 3435.89 920.621V744.305C3435.89 610.663 3544.23 502.325 3677.87 502.325H4000.92C4134.56 502.325 4242.9 610.663 4242.9 744.305C4242.9 744.305 4239.03 1303.37 4239.02 1374.48C4239.02 1390.87 4252.3 1404.09 4268.68 1404.09H4433.33C4449.71 1404.09 4462.99 1390.81 4462.99 1374.43V746.3C4462.99 486.625 4252.48 276.121 3992.81 276.121H3685.98Z" fill="url(#paint2_linear_1792_1892)"/>
<path d="M1509.51 276.121C1249.84 276.121 1039.33 486.625 1039.33 746.3V918.625C1039.33 1178.3 1249.84 1388.81 1509.51 1388.81L1895.75 1388.8C1912.77 1388.81 1926.57 1375.07 1926.61 1358.06C1926.7 1314.86 1926.87 1236.67 1926.96 1193.44C1927 1176.4 1913.19 1162.6 1896.15 1162.6H1501.4C1367.76 1162.6 1259.42 1054.26 1259.42 920.621V744.305C1259.42 610.663 1367.76 502.325 1501.4 502.325H1824.45C1958.1 502.325 2066.43 610.663 2066.43 744.304C2066.43 744.304 2062.56 1303.37 2062.55 1374.48C2062.55 1390.87 2075.83 1404.09 2092.21 1404.09H2256.86C2273.24 1404.09 2286.52 1390.81 2286.52 1374.43V746.3C2286.52 486.625 2076.02 276.121 1816.35 276.121H1509.51Z" fill="url(#paint3_linear_1792_1892)"/>
<path d="M2942.72 279.172C2681.6 279.172 2469.93 490.852 2469.93 751.964V1361.29C2469.93 1378.18 2483.62 1391.86 2500.5 1391.86H2671.68C2688.56 1391.86 2702.25 1378.18 2702.25 1361.29V758.077C2702.25 615.139 2805.89 499.264 2948.83 499.264H3124.09C3140.97 499.264 3154.66 485.577 3154.66 468.693V309.739C3154.66 292.856 3140.97 279.172 3124.09 279.172H2942.72Z" fill="url(#paint4_linear_1792_1892)"/>
<path d="M0 279.172V1391.86H232.321V426.583C232.321 345.17 166.325 279.174 84.917 279.174H0V279.172Z" fill="url(#paint5_linear_1792_1892)"/>
<path d="M784.15 268.541L379.058 633.77C268.162 744.328 267.296 923.666 377.112 1035.29L782.558 1391.87H1137.15L515.396 834.545L1125.54 255.699L784.15 268.541Z" fill="url(#paint6_linear_1792_1892)"/>
<path d="M6999.6 0.691407C6932.42 0.804407 6883.94 51.0454 6881.77 118.212C6884.02 186.12 6933.06 235.949 6999.98 235.758C7067.73 235.562 7117.32 185.283 7117.36 118.229C7117.4 50.745 7066.89 0.683407 6999.82 0.691407H6999.6ZM6999.7 210.137C6949.1 210.112 6907.94 168.712 6907.94 117.833C6907.94 67.67 6949.31 26.437 6999.67 26.354C7050.17 26.299 7091.54 67.4832 7091.7 117.991C7091.87 168.483 7050.33 210.137 6999.8 210.137H6999.7Z" fill="url(#paint7_linear_1792_1892)"/>
<path d="M6956.27 58.8906V171.316H6978.96V124.375L6983.56 124.374C6988.78 124.375 6992.58 124.799 6995 125.65C6997.39 126.491 6999.67 128.05 7001.82 130.329C7003.96 132.595 7007.95 138.104 7013.78 146.845L7030.18 171.316H7057.33L7043.6 149.387C7038.18 140.629 7033.87 134.55 7030.68 131.133C7027.49 127.704 7023.44 124.558 7018.52 121.687C7028.39 120.262 7035.8 116.791 7040.76 111.312C7045.72 105.804 7048.2 98.8406 7048.2 90.4116C7048.2 83.7746 7046.57 77.8617 7043.29 72.6997C7040.02 67.5407 7035.66 63.9499 7030.22 61.9199C7024.78 59.9039 7016.05 58.8906 7004.04 58.8906H6956.27ZM6978.96 77.9116H6996.68C7005.87 77.9116 7011.4 78.0325 7013.24 78.2905C7016.92 78.8995 7019.77 80.3655 7021.78 82.7075C7023.81 85.0245 7024.82 88.0788 7024.82 91.8618C7024.82 95.2408 7024.05 98.0615 7022.51 100.291C7020.98 102.562 7018.86 104.129 7016.15 105.054C7013.44 105.975 7006.65 106.441 6995.76 106.441H6978.96V77.9116Z" fill="url(#paint8_linear_1792_1892)"/>
<path d="M330.05 1909.6L73.7129 2220.08V1909.6H0.00390625V2552.15H73.7129V2323.13L142.279 2241.31L347.871 2552.15L434.025 2552.15L190.546 2184.28L417.654 1909.6H330.05Z" fill="url(#paint9_linear_1792_1892)"/>
<path d="M597.538 2072.42H527.621V2552.15H597.538V2072.42Z" fill="url(#paint10_linear_1792_1892)"/>
<path d="M597.538 1909.61H527.621V2030.49H597.538V1909.61Z" fill="url(#paint11_linear_1792_1892)"/>
<path d="M785.26 1940.3V2072.41H718.02V2135.32H785.26V2465.29C785.26 2525.46 816.344 2557.27 875.16 2557.27L943.265 2549.23V2484.17L921.957 2489.81C907.67 2493.59 895.994 2494.35 881.785 2494.35C866.706 2494.35 855.181 2491.96 855.181 2461.88V2135.32H937.582V2072.41H855.181V1940.3H785.26Z" fill="url(#paint12_linear_1792_1892)"/>
<path d="M1034.38 2310.15C1034.38 2418.43 1052.73 2562.38 1211.41 2562.38C1351.2 2562.38 1381.81 2437.55 1381.81 2389.44V2372.48H1308.1V2389.44C1308.1 2390.54 1307.06 2499.47 1217.09 2499.47C1151.66 2499.47 1108.09 2467.56 1108.09 2311.86C1108.09 2146.33 1166.34 2125.11 1217.09 2125.11C1290.3 2125.11 1305.26 2197.79 1305.26 2217.25V2234.21H1378.97V2217.25C1378.97 2177.02 1349.41 2062.2 1218.04 2062.2C1096.17 2062.2 1034.38 2145.63 1034.38 2310.15Z" fill="url(#paint13_linear_1792_1892)"/>
<path d="M1509.9 1909.6V2552.15H1579.82V2249.63C1579.82 2187.64 1611.18 2125.1 1681.24 2125.1C1739.15 2125.1 1762.78 2151.05 1762.78 2214.69V2552.15H1832.7V2199.33C1832.7 2113.47 1779.61 2062.2 1690.71 2062.2C1641.68 2062.2 1604.8 2080.95 1579.82 2105.63V1909.6L1509.9 1909.6Z" fill="url(#paint14_linear_1792_1892)"/>
<path d="M1977.84 2299.93C1977.84 2429.71 1998.87 2562.38 2154.87 2562.38C2271.94 2562.38 2325.27 2472.74 2325.27 2389.44V2372.48H2255.35V2389.44C2255.35 2393.93 2254.17 2499.47 2151.08 2499.47C2064.9 2499.47 2052.82 2413.41 2051.66 2327.12H2331.9V2310.15C2331.9 2203.71 2314.14 2062.2 2160.55 2062.2C2044.43 2062.2 1977.84 2148.85 1977.84 2299.93ZM2158.66 2125.11C2224.72 2125.11 2254.91 2166.94 2257.94 2264.21H2051.96C2054.78 2205.75 2074.03 2125.11 2158.66 2125.11Z" fill="url(#paint15_linear_1792_1892)"/>
<path d="M2540.32 2105.64V2072.42H2470.4V2552.16H2540.32V2249.64C2540.32 2187.65 2571.68 2125.11 2641.74 2125.11C2699.65 2125.11 2723.28 2151.06 2723.28 2214.7V2552.16H2793.19V2199.34C2793.19 2113.48 2740.12 2062.2 2651.22 2062.2C2602.19 2062.2 2565.3 2080.96 2540.32 2105.64Z" fill="url(#paint16_linear_1792_1892)"/>
<path d="M4000.01 1909.61H3926.29V2552.16H4000.01V1909.61Z" fill="url(#paint17_linear_1792_1892)"/>
<path d="M4236.79 2105.65V2072.41H4166.88V2552.15H4236.79V2249.63C4236.79 2187.64 4268.15 2125.1 4338.23 2125.1C4396.14 2125.1 4419.77 2151.05 4419.77 2214.69V2552.15H4489.68V2199.33C4489.68 2113.47 4436.6 2062.2 4347.7 2062.2C4298.67 2062.2 4261.77 2080.96 4236.79 2105.65Z" fill="url(#paint18_linear_1792_1892)"/>
<path d="M4673.65 1940.3V2072.41H4606.39V2135.32H4673.65V2465.29C4673.65 2525.46 4704.73 2557.27 4763.54 2557.27L4831.64 2549.23V2484.18L4810.34 2489.81C4796.04 2493.59 4784.38 2494.35 4770.16 2494.35C4755.09 2494.35 4743.56 2491.96 4743.56 2461.88V2135.32H4825.96V2072.41H4743.56V1940.3H4673.65Z" fill="url(#paint19_linear_1792_1892)"/>
<path d="M4922.78 2299.93C4922.78 2429.71 4943.82 2562.38 5099.81 2562.38C5216.87 2562.38 5270.2 2472.74 5270.2 2389.44V2372.48H5200.28V2389.44C5200.28 2393.93 5199.09 2499.47 5096.02 2499.47C5009.83 2499.47 4997.74 2413.41 4996.58 2327.12H5276.84L5276.84 2310.15C5276.84 2203.71 5259.08 2062.2 5105.49 2062.2C4989.38 2062.2 4922.78 2148.85 4922.78 2299.93ZM5103.58 2125.11C5169.64 2125.11 5199.83 2166.94 5202.87 2264.21H4996.88C4999.71 2205.75 5018.97 2125.11 5103.58 2125.11Z" fill="url(#paint20_linear_1792_1892)"/>
<path d="M5594.26 2062.2C5549.55 2062.2 5511.91 2078.35 5485.26 2107.89V2072.42H5415.35V2552.16H5485.26V2252.2C5485.26 2188.93 5518.97 2125.11 5594.26 2125.11H5632.07V2062.2H5594.26Z" fill="url(#paint21_linear_1792_1892)"/>
<path d="M5812.05 1909.61H5742.12V2030.49H5812.05V1909.61Z" fill="url(#paint22_linear_1792_1892)"/>
<path d="M5812.05 2072.42H5742.12V2552.15H5812.05V2072.42Z" fill="url(#paint23_linear_1792_1892)"/>
<path d="M5960.95 2311.86C5960.95 2373.82 5960.95 2562.38 6140.81 2562.38C6326.37 2562.38 6326.37 2373.82 6326.37 2311.86C6326.37 2250.12 6326.37 2062.2 6146.5 2062.2C5960.95 2062.2 5960.95 2250.12 5960.95 2311.86ZM6034.65 2312.72C6034.65 2147.4 6089.75 2125.11 6143.66 2125.11C6197.55 2125.11 6252.65 2147.4 6252.65 2312.72C6252.65 2477.3 6197.55 2499.47 6143.66 2499.47C6089.75 2499.47 6034.65 2477.3 6034.65 2312.72Z" fill="url(#paint24_linear_1792_1892)"/>
<path d="M6650.43 2062.2C6605.71 2062.2 6568.08 2078.35 6541.42 2107.89V2072.42H6471.51L6471.51 2552.16H6541.42V2252.2C6541.42 2188.93 6575.14 2125.11 6650.43 2125.11H6688.23V2062.2H6650.43Z" fill="url(#paint25_linear_1792_1892)"/>
<path d="M6778.4 2194.23C6778.4 2275.04 6837.78 2305.78 6882.41 2321.84L6955.42 2348.29C7007.36 2366.84 7018.02 2391.79 7018.02 2423.53C7018.02 2446.36 7009.62 2499.47 6931.76 2499.47C6867.71 2499.47 6837.89 2470.2 6837.89 2407.33V2375.86H6767.98V2404.78C6767.98 2509.34 6823.08 2562.37 6931.76 2562.37C7024.46 2562.37 7091.74 2503.61 7091.74 2422.67C7091.74 2356.48 7057.62 2311.22 6990.29 2288.13L6914.56 2262.59C6869.03 2246.83 6852.11 2227.38 6852.11 2190.82C6852.11 2133.63 6901.41 2125.1 6930.8 2125.1C6983.97 2125.1 7006.65 2148.06 7006.65 2201.9V2231.66H7076.58V2201.04C7076.58 2110.21 7026.17 2062.2 6930.8 2062.2C6838.22 2062.2 6778.4 2114.01 6778.4 2194.23Z" fill="url(#paint26_linear_1792_1892)"/>
<path d="M3372.09 1910.31H3336.67V2551.24H3372.09V1910.31Z" fill="url(#paint27_linear_1792_1892)"/>
<defs>
<linearGradient id="paint0_linear_1792_1892" x1="-1531.98" y1="-4347.21" x2="9360.62" y2="2673.16" gradientUnits="userSpaceOnUse">
<stop stop-color="#99785F"/>
<stop offset="0.38" stop-color="#D9B898"/>
<stop offset="0.56" stop-color="#BF9D7F"/>
<stop offset="1" stop-color="#D9B898"/>
</linearGradient>
<linearGradient id="paint1_linear_1792_1892" x1="-1917.64" y1="-3748.83" x2="8974.96" y2="3271.54" gradientUnits="userSpaceOnUse">
<stop stop-color="#99785F"/>
<stop offset="0.38" stop-color="#D9B898"/>
<stop offset="0.56" stop-color="#BF9D7F"/>
<stop offset="1" stop-color="#D9B898"/>
</linearGradient>
<linearGradient id="paint2_linear_1792_1892" x1="-2314.19" y1="-3133.57" x2="8578.42" y2="3886.8" gradientUnits="userSpaceOnUse">
<stop stop-color="#99785F"/>
<stop offset="0.38" stop-color="#D9B898"/>
<stop offset="0.56" stop-color="#BF9D7F"/>
<stop offset="1" stop-color="#D9B898"/>
</linearGradient>
<linearGradient id="paint3_linear_1792_1892" x1="-2952.94" y1="-2142.5" x2="7939.66" y2="4877.87" gradientUnits="userSpaceOnUse">
<stop stop-color="#99785F"/>
<stop offset="0.38" stop-color="#D9B898"/>
<stop offset="0.56" stop-color="#BF9D7F"/>
<stop offset="1" stop-color="#D9B898"/>
</linearGradient>
<linearGradient id="paint4_linear_1792_1892" x1="-2617.01" y1="-2663.72" x2="8275.59" y2="4356.65" gradientUnits="userSpaceOnUse">
<stop stop-color="#99785F"/>
<stop offset="0.38" stop-color="#D9B898"/>
<stop offset="0.56" stop-color="#BF9D7F"/>
<stop offset="1" stop-color="#D9B898"/>
</linearGradient>
<linearGradient id="paint5_linear_1792_1892" x1="-3423.53" y1="-1412.34" x2="7469.07" y2="5608.03" gradientUnits="userSpaceOnUse">
<stop stop-color="#99785F"/>
<stop offset="0.38" stop-color="#D9B898"/>
<stop offset="0.56" stop-color="#BF9D7F"/>
<stop offset="1" stop-color="#D9B898"/>
</linearGradient>
<linearGradient id="paint6_linear_1792_1892" x1="-3157.03" y1="-1825.84" x2="7735.57" y2="5194.53" gradientUnits="userSpaceOnUse">
<stop stop-color="#99785F"/>
<stop offset="0.38" stop-color="#D9B898"/>
<stop offset="0.56" stop-color="#BF9D7F"/>
<stop offset="1" stop-color="#D9B898"/>
</linearGradient>
<linearGradient id="paint7_linear_1792_1892" x1="-1061.4" y1="-5077.4" x2="9831.22" y2="1943" gradientUnits="userSpaceOnUse">
<stop stop-color="#99785F"/>
<stop offset="0.38" stop-color="#D9B898"/>
<stop offset="0.56" stop-color="#BF9D7F"/>
<stop offset="1" stop-color="#D9B898"/>
</linearGradient>
<linearGradient id="paint8_linear_1792_1892" x1="-1062.51" y1="-5075.72" x2="9830.14" y2="1944.7" gradientUnits="userSpaceOnUse">
<stop stop-color="#99785F"/>
<stop offset="0.38" stop-color="#D9B898"/>
<stop offset="0.56" stop-color="#BF9D7F"/>
<stop offset="1" stop-color="#D9B898"/>
</linearGradient>
<linearGradient id="paint9_linear_1792_1892" x1="-4307.84" y1="-1394.18" x2="10267.8" y2="10304.1" gradientUnits="userSpaceOnUse">
<stop stop-color="#99785F"/>
<stop offset="0.38" stop-color="#D9B898"/>
<stop offset="0.56" stop-color="#BF9D7F"/>
<stop offset="1" stop-color="#D9B898"/>
</linearGradient>
<linearGradient id="paint10_linear_1792_1892" x1="-4208.99" y1="-1517.35" x2="10366.6" y2="10181" gradientUnits="userSpaceOnUse">
<stop stop-color="#99785F"/>
<stop offset="0.38" stop-color="#D9B898"/>
<stop offset="0.56" stop-color="#BF9D7F"/>
<stop offset="1" stop-color="#D9B898"/>
</linearGradient>
<linearGradient id="paint11_linear_1792_1892" x1="-4041.92" y1="-1725.49" x2="10533.7" y2="9972.81" gradientUnits="userSpaceOnUse">
<stop stop-color="#99785F"/>
<stop offset="0.38" stop-color="#D9B898"/>
<stop offset="0.56" stop-color="#BF9D7F"/>
<stop offset="1" stop-color="#D9B898"/>
</linearGradient>
<linearGradient id="paint12_linear_1792_1892" x1="-4067" y1="-1694.26" x2="10508.6" y2="10004" gradientUnits="userSpaceOnUse">
<stop stop-color="#99785F"/>
<stop offset="0.38" stop-color="#D9B898"/>
<stop offset="0.56" stop-color="#BF9D7F"/>
<stop offset="1" stop-color="#D9B898"/>
</linearGradient>
<linearGradient id="paint13_linear_1792_1892" x1="-3954.4" y1="-1834.56" x2="10621.2" y2="9863.75" gradientUnits="userSpaceOnUse">
<stop stop-color="#99785F"/>
<stop offset="0.38" stop-color="#D9B898"/>
<stop offset="0.56" stop-color="#BF9D7F"/>
<stop offset="1" stop-color="#D9B898"/>
</linearGradient>
<linearGradient id="paint14_linear_1792_1892" x1="-3784.4" y1="-2046.36" x2="10791.2" y2="9651.93" gradientUnits="userSpaceOnUse">
<stop stop-color="#99785F"/>
<stop offset="0.38" stop-color="#D9B898"/>
<stop offset="0.56" stop-color="#BF9D7F"/>
<stop offset="1" stop-color="#D9B898"/>
</linearGradient>
<linearGradient id="paint15_linear_1792_1892" x1="-3584.8" y1="-2295.07" x2="10990.8" y2="9403.24" gradientUnits="userSpaceOnUse">
<stop stop-color="#99785F"/>
<stop offset="0.38" stop-color="#D9B898"/>
<stop offset="0.56" stop-color="#BF9D7F"/>
<stop offset="1" stop-color="#D9B898"/>
</linearGradient>
<linearGradient id="paint16_linear_1792_1892" x1="-3411.91" y1="-2510.48" x2="11163.7" y2="9187.82" gradientUnits="userSpaceOnUse">
<stop stop-color="#99785F"/>
<stop offset="0.38" stop-color="#D9B898"/>
<stop offset="0.56" stop-color="#BF9D7F"/>
<stop offset="1" stop-color="#D9B898"/>
</linearGradient>
<linearGradient id="paint17_linear_1792_1892" x1="-2836.98" y1="-3226.84" x2="11738.6" y2="8471.5" gradientUnits="userSpaceOnUse">
<stop stop-color="#99785F"/>
<stop offset="0.38" stop-color="#D9B898"/>
<stop offset="0.56" stop-color="#BF9D7F"/>
<stop offset="1" stop-color="#D9B898"/>
</linearGradient>
<linearGradient id="paint18_linear_1792_1892" x1="-2747.26" y1="-3338.61" x2="11828.3" y2="8359.7" gradientUnits="userSpaceOnUse">
<stop stop-color="#99785F"/>
<stop offset="0.38" stop-color="#D9B898"/>
<stop offset="0.56" stop-color="#BF9D7F"/>
<stop offset="1" stop-color="#D9B898"/>
</linearGradient>
<linearGradient id="paint19_linear_1792_1892" x1="-2543.59" y1="-3592.37" x2="12032" y2="8105.93" gradientUnits="userSpaceOnUse">
<stop stop-color="#99785F"/>
<stop offset="0.38" stop-color="#D9B898"/>
<stop offset="0.56" stop-color="#BF9D7F"/>
<stop offset="1" stop-color="#D9B898"/>
</linearGradient>
<linearGradient id="paint20_linear_1792_1892" x1="-2431.01" y1="-3732.64" x2="12144.6" y2="7965.67" gradientUnits="userSpaceOnUse">
<stop stop-color="#99785F"/>
<stop offset="0.38" stop-color="#D9B898"/>
<stop offset="0.56" stop-color="#BF9D7F"/>
<stop offset="1" stop-color="#D9B898"/>
</linearGradient>
<linearGradient id="paint21_linear_1792_1892" x1="-2262.82" y1="-3942.23" x2="12312.8" y2="7756.11" gradientUnits="userSpaceOnUse">
<stop stop-color="#99785F"/>
<stop offset="0.38" stop-color="#D9B898"/>
<stop offset="0.56" stop-color="#BF9D7F"/>
<stop offset="1" stop-color="#D9B898"/>
</linearGradient>
<linearGradient id="paint22_linear_1792_1892" x1="-1998.94" y1="-4270.95" x2="12576.6" y2="7427.32" gradientUnits="userSpaceOnUse">
<stop stop-color="#99785F"/>
<stop offset="0.38" stop-color="#D9B898"/>
<stop offset="0.56" stop-color="#BF9D7F"/>
<stop offset="1" stop-color="#D9B898"/>
</linearGradient>
<linearGradient id="paint23_linear_1792_1892" x1="-2166" y1="-4062.8" x2="12409.6" y2="7635.46" gradientUnits="userSpaceOnUse">
<stop stop-color="#99785F"/>
<stop offset="0.38" stop-color="#D9B898"/>
<stop offset="0.56" stop-color="#BF9D7F"/>
<stop offset="1" stop-color="#D9B898"/>
</linearGradient>
<linearGradient id="paint24_linear_1792_1892" x1="-2022.37" y1="-4241.78" x2="12553.2" y2="7456.51" gradientUnits="userSpaceOnUse">
<stop stop-color="#99785F"/>
<stop offset="0.38" stop-color="#D9B898"/>
<stop offset="0.56" stop-color="#BF9D7F"/>
<stop offset="1" stop-color="#D9B898"/>
</linearGradient>
<linearGradient id="paint25_linear_1792_1892" x1="-1849.04" y1="-4457.79" x2="12726.6" y2="7240.56" gradientUnits="userSpaceOnUse">
<stop stop-color="#99785F"/>
<stop offset="0.38" stop-color="#D9B898"/>
<stop offset="0.56" stop-color="#BF9D7F"/>
<stop offset="1" stop-color="#D9B898"/>
</linearGradient>
<linearGradient id="paint26_linear_1792_1892" x1="-1715.56" y1="-4624.06" x2="12860" y2="7074.24" gradientUnits="userSpaceOnUse">
<stop stop-color="#99785F"/>
<stop offset="0.38" stop-color="#D9B898"/>
<stop offset="0.56" stop-color="#BF9D7F"/>
<stop offset="1" stop-color="#D9B898"/>
</linearGradient>
<linearGradient id="paint27_linear_1792_1892" x1="-3075.41" y1="-2929.74" x2="11500.2" y2="8768.55" gradientUnits="userSpaceOnUse">
<stop stop-color="#99785F"/>
<stop offset="0.38" stop-color="#D9B898"/>
<stop offset="0.56" stop-color="#BF9D7F"/>
<stop offset="1" stop-color="#D9B898"/>
</linearGradient>
</defs>
</svg>
