<svg xmlns="http://www.w3.org/2000/svg" xmlns:xlink="http://www.w3.org/1999/xlink" id="Layer_1" version="1.1" viewBox="0 0 595.28 388"><defs><linearGradient id="linear-gradient" x1="835.12" x2="-563.23" y1="-389.36" y2="732.99" gradientUnits="userSpaceOnUse"><stop offset="0" stop-color="#be9c7e"/><stop offset=".22" stop-color="#bf9d7f"/><stop offset=".3" stop-color="#c6a486"/><stop offset=".36" stop-color="#d1b090"/><stop offset=".38" stop-color="#d9b898"/><stop offset=".56" stop-color="#c5a384"/><stop offset=".68" stop-color="#be9c7e"/><stop offset=".87" stop-color="#bf9d7f"/><stop offset=".93" stop-color="#c6a486"/><stop offset=".98" stop-color="#d1b090"/><stop offset="1" stop-color="#d9b898"/></linearGradient><linearGradient xlink:href="#linear-gradient" id="linear-gradient1" x1="848.23" x2="-550.12" y1="-373.03" y2="749.33"/><linearGradient xlink:href="#linear-gradient" id="linear-gradient2" x1="835.72" x2="-562.63" y1="-388.61" y2="733.75"/><linearGradient xlink:href="#linear-gradient" id="linear-gradient3" x1="854.61" x2="-543.74" y1="-365.08" y2="757.28"/><linearGradient xlink:href="#linear-gradient" id="linear-gradient4" x1="867.29" x2="-531.05" y1="-349.28" y2="773.08"/><linearGradient xlink:href="#linear-gradient" id="linear-gradient5" x1="877.77" x2="-520.58" y1="-336.22" y2="786.13"/><linearGradient xlink:href="#linear-gradient" id="linear-gradient6" x1="895.01" x2="-503.34" y1="-314.75" y2="807.61"/><linearGradient xlink:href="#linear-gradient" id="linear-gradient7" x1="908.92" x2="-489.43" y1="-297.42" y2="824.94"/><linearGradient xlink:href="#linear-gradient" id="linear-gradient8" x1="944.99" x2="-453.36" y1="-252.48" y2="869.88"/><linearGradient xlink:href="#linear-gradient" id="linear-gradient9" x1="958.67" x2="-439.68" y1="-235.43" y2="886.93"/><linearGradient xlink:href="#linear-gradient" id="linear-gradient10" x1="968.65" x2="-429.7" y1="-223" y2="899.36"/><linearGradient xlink:href="#linear-gradient" id="linear-gradient11" x1="981.38" x2="-416.97" y1="-207.13" y2="915.22"/><linearGradient xlink:href="#linear-gradient" id="linear-gradient12" x1="991.58" x2="-406.77" y1="-194.43" y2="927.93"/><linearGradient xlink:href="#linear-gradient" id="linear-gradient13" x1="988.66" x2="-409.69" y1="-198.07" y2="924.29"/><linearGradient xlink:href="#linear-gradient" id="linear-gradient14" x1="1001.16" x2="-397.18" y1="-182.49" y2="939.87"/><linearGradient xlink:href="#linear-gradient" id="linear-gradient15" x1="1011.91" x2="-386.43" y1="-169.1" y2="953.26"/><linearGradient xlink:href="#linear-gradient" id="linear-gradient16" x1="1022.56" x2="-375.79" y1="-155.84" y2="966.52"/><linearGradient xlink:href="#linear-gradient" id="linear-gradient17" x1="927.13" x2="-471.22" y1="-274.73" y2="847.63"/><linearGradient xlink:href="#linear-gradient" id="linear-gradient18" x1="-59.38" x2="706.19" y1="-213.14" y2="280.27"/><linearGradient xlink:href="#linear-gradient" id="linear-gradient19" x1="-86.48" x2="679.08" y1="-171.09" y2="322.33"/><linearGradient xlink:href="#linear-gradient" id="linear-gradient20" x1="-114.35" x2="651.21" y1="-127.84" y2="365.57"/><linearGradient xlink:href="#linear-gradient" id="linear-gradient21" x1="-159.24" x2="606.32" y1="-58.19" y2="435.22"/><linearGradient xlink:href="#linear-gradient" id="linear-gradient22" x1="-135.63" x2="629.93" y1="-94.82" y2="398.59"/><linearGradient xlink:href="#linear-gradient" id="linear-gradient23" x1="-192.32" x2="573.24" y1="-6.87" y2="486.54"/><linearGradient xlink:href="#linear-gradient" id="linear-gradient24" x1="-173.59" x2="591.97" y1="-35.93" y2="457.48"/><linearGradient xlink:href="#linear-gradient" id="linear-gradient25" x1="-26.3" x2="739.26" y1="-264.46" y2="228.95"/><linearGradient xlink:href="#linear-gradient" id="linear-gradient26" x1="-26.38" x2="739.19" y1="-264.34" y2="229.07"/><style>.st16{fill:#be9c7e}</style></defs><path d="M79.14 205.41h-6.56l-19.19 23.24v-23.24h-5.51v48.1h5.51v-17.14l5.14-6.13 15.39 23.27h6.45l-18.23-27.54z" style="fill:url(#linear-gradient)"/><path d="M87.37 217.6h5.23v35.91h-5.23z" style="fill:url(#linear-gradient1)"/><path d="M87.37 205.41h5.23v9.05h-5.23z" style="fill:url(#linear-gradient2)"/><path d="M113.88 249.18c-1.13 0-1.99-.18-1.99-2.43v-24.44h6.17v-4.71h-6.17v-9.89h-5.23v9.89h-5.03v4.71h5.03v24.7c0 4.5 2.33 6.89 6.73 6.89 1.21 0 2.73-.15 4.06-.41l1.03-.2v-4.87l-1.59.42c-1.07.28-1.94.34-3.01.34" style="fill:url(#linear-gradient3)"/><path d="M145.8 241.33c0 .08-.08 8.24-6.81 8.24-4.9 0-8.16-2.39-8.16-14.04 0-12.39 4.36-13.98 8.16-13.98 5.48 0 6.6 5.44 6.6 6.9v1.27h5.52v-1.27c0-3.01-2.21-11.61-12.05-11.61-9.12 0-13.75 6.25-13.75 18.56 0 8.11 1.37 18.88 13.25 18.88 10.46 0 12.76-9.34 12.76-12.95v-1.27h-5.52z" style="fill:url(#linear-gradient4)"/><path d="M174.44 216.83c-3.67 0-6.43 1.4-8.3 3.25v-14.67h-5.23v48.1h5.23v-22.65c0-4.64 2.35-9.32 7.59-9.32 4.33 0 6.1 1.94 6.1 6.71v25.26h5.23V227.1c0-6.43-3.97-10.27-10.63-10.27Z" style="fill:url(#linear-gradient5)"/><path d="M209.61 216.83c-8.69 0-13.68 6.49-13.68 17.8 0 9.71 1.57 19.65 13.25 19.65 8.76 0 12.76-6.71 12.76-12.95v-1.27h-5.23v1.27c0 .34-.09 8.24-7.81 8.24-6.45 0-7.36-6.44-7.44-12.9h20.98v-1.27c0-7.97-1.33-18.56-12.83-18.56Zm-8.13 15.13c.21-4.38 1.65-10.41 7.99-10.41 4.94 0 7.2 3.13 7.43 10.41z" style="fill:url(#linear-gradient6)"/><path d="M246.33 216.83c-3.67 0-6.43 1.4-8.3 3.25v-2.49h-5.23v35.91h5.23v-22.65c0-4.64 2.35-9.32 7.59-9.32 4.33 0 6.1 1.94 6.1 6.71v25.26h5.23v-26.41c0-6.43-3.97-10.27-10.63-10.27Z" style="fill:url(#linear-gradient7)"/><path d="M341.78 205.41h5.52v48.1h-5.52z" style="fill:url(#linear-gradient8)"/><path d="M373.33 216.83c-3.67 0-6.43 1.41-8.3 3.25v-2.49h-5.23v35.91h5.23v-22.65c0-4.64 2.35-9.32 7.59-9.32 4.34 0 6.1 1.94 6.1 6.71v25.26h5.23v-26.41c0-6.43-3.97-10.27-10.63-10.27Z" style="fill:url(#linear-gradient9)"/><path d="M404.95 249.18c-1.13 0-1.99-.18-1.99-2.43v-24.44h6.17v-4.71h-6.17v-9.89h-5.23v9.89h-5.03v4.71h5.03v24.7c0 4.5 2.33 6.89 6.73 6.89 1.21 0 2.73-.15 4.06-.41l1.03-.2v-4.87l-1.59.42c-1.07.28-1.94.34-3.01.34" style="fill:url(#linear-gradient10)"/><path d="M430.05 216.83c-8.69 0-13.68 6.49-13.68 17.8 0 9.71 1.57 19.65 13.25 19.65 8.76 0 12.75-6.71 12.75-12.95v-1.27h-5.23v1.27c0 .34-.09 8.24-7.81 8.24-6.45 0-7.36-6.44-7.44-12.9h20.98v-1.27c0-7.97-1.33-18.56-12.83-18.56Zm-8.13 15.13c.21-4.38 1.65-10.41 7.99-10.41 4.94 0 7.2 3.13 7.43 10.41z" style="fill:url(#linear-gradient11)"/><path d="M458.48 220.25v-2.66h-5.23v35.91h5.23v-22.45c0-4.74 2.52-9.51 8.16-9.51h2.83v-4.71h-2.83c-3.35 0-6.16 1.21-8.16 3.42" style="fill:url(#linear-gradient12)"/><path d="M477.71 205.41h5.23v9.05h-5.23z" style="fill:url(#linear-gradient13)"/><path d="M477.71 217.6h5.23v35.91h-5.23z" style="fill:url(#linear-gradient14)"/><path d="M507.98 216.83c-13.89 0-13.89 14.07-13.89 18.69s0 18.75 13.46 18.75 13.89-14.11 13.89-18.75 0-18.69-13.46-18.69m-.22 32.74c-4.04 0-8.16-1.66-8.16-13.98s4.12-14.04 8.16-14.04 8.16 1.67 8.16 14.04-4.12 13.98-8.16 13.98" style="fill:url(#linear-gradient15)"/><path d="M537.54 220.25v-2.66h-5.23v35.91h5.23v-22.45c0-4.74 2.52-9.51 8.16-9.51h2.83v-4.71h-2.83c-3.35 0-6.16 1.21-8.16 3.42" style="fill:url(#linear-gradient16)"/><path d="M297.64 205.46h2.65v47.98h-2.65z" style="fill:url(#linear-gradient17)"/><path d="M480.13 189.36v-27.2a3.74 3.74 0 0 1 3.74-3.74h44.52a3.74 3.74 0 0 1 3.74 3.74v27.63c0 .71.58 1.29 1.29 1.29h12.89c.71 0 1.29-.58 1.29-1.29v-76.48c0-.71-.58-1.29-1.29-1.29h-12.89c-.71 0-1.29.58-1.29 1.29v25.91a3.74 3.74 0 0 1-3.74 3.74h-44.52a3.74 3.74 0 0 1-3.74-3.74v-26.34c0-.71-.58-1.29-1.29-1.29h-12.89c-.71 0-1.29.58-1.29 1.29v76.48c0 .71.58 1.29 1.29 1.29h12.89c.71 0 1.29-.58 1.29-1.29" style="fill:url(#linear-gradient18)"/><path d="m435.97 143.69-42.86-.28a4.577 4.577 0 0 1-4.54-4.58v-6.77a4.57 4.57 0 0 1 4.57-4.58h55c1.19 0 2.16-.97 2.16-2.17v-11.14c0-1.2-.97-2.17-2.16-2.17h-56.71c-10.1 0-18.29 8.21-18.29 18.33v10.17c0 10.12 8.19 18.33 18.29 18.33h42.31c2.52 0 4.57 2.05 4.57 4.58v6.74a4.57 4.57 0 0 1-4.57 4.58h-55c-1.19 0-2.16.97-2.16 2.17v11.14c0 1.2.97 2.17 2.16 2.17h57.31c10.19 0 18.4-8.38 18.21-18.59l-.19-10.01c-.18-9.9-8.21-17.85-18.09-17.92Z" style="fill:url(#linear-gradient19)"/><path d="M306.79 127.7h22.7c9.39 0 17.01 7.61 17.01 17.01 0 0-.27 39.29-.27 44.29 0 1.15.93 2.08 2.08 2.08h11.57c1.15 0 2.08-.93 2.08-2.08v-44.15c0-18.25-14.79-33.05-33.05-33.05h-21.56c-18.25 0-33.05 14.79-33.05 33.05v12.11c0 18.25 14.79 33.05 33.05 33.05h27.15c1.2 0 2.17-.97 2.17-2.16 0-3.04.02-8.53.02-11.57 0-1.2-.97-2.17-2.17-2.17h-27.74c-9.39 0-17.01-7.61-17.01-17.01v-12.39c0-9.39 7.61-17.01 17.01-17.01Z" style="fill:url(#linear-gradient20)"/><path d="M153.82 127.7h22.7c9.39 0 17.01 7.61 17.01 17.01 0 0-.27 39.29-.27 44.29 0 1.15.93 2.08 2.08 2.08h11.57c1.15 0 2.08-.93 2.08-2.08v-44.15c0-18.25-14.79-33.05-33.05-33.05h-21.56c-18.25 0-33.05 14.79-33.05 33.05v12.11c0 18.25 14.79 33.05 33.05 33.05h27.15c1.2 0 2.17-.97 2.17-2.16 0-3.04.02-8.53.02-11.57 0-1.2-.97-2.17-2.17-2.17h-27.74c-9.39 0-17.01-7.61-17.01-17.01v-12.39c0-9.39 7.61-17.01 17.01-17.01Z" style="fill:url(#linear-gradient21)"/><path d="M267.87 112.01h-12.75c-18.35 0-33.23 14.88-33.23 33.23v42.83c0 1.19.96 2.15 2.15 2.15h12.03c1.19 0 2.15-.96 2.15-2.15v-42.4c0-10.05 7.28-18.19 17.33-18.19h12.32c1.19 0 2.15-.96 2.15-2.15v-11.17c0-1.19-.96-2.15-2.15-2.15" style="fill:url(#linear-gradient22)"/><path d="M64.63 122.37c0-5.72-4.64-10.36-10.36-10.36H48.3v78.2h16.33z" style="fill:url(#linear-gradient23)"/><path d="m74.94 165.3 28.36 24.92h24.92l-43.7-39.17 42.88-40.68-23.99.9-28.47 25.67c-7.79 7.77-7.86 20.37-.14 28.22z" style="fill:url(#linear-gradient24)"/><path d="M531.97 100.7c.15-4.72 3.56-8.25 8.28-8.26 4.72 0 8.28 3.51 8.28 8.26 0 4.71-3.49 8.25-8.25 8.26-4.7.01-8.15-3.49-8.31-8.26m8.29-6.45c-3.54 0-6.45 2.9-6.45 6.43 0 3.58 2.89 6.49 6.45 6.49 3.55 0 6.48-2.93 6.47-6.48s-2.92-6.44-6.47-6.44" style="fill:url(#linear-gradient25);fill-rule:evenodd"/><path d="M537.2 104.43v-7.9h3.36c.84 0 1.46.07 1.84.21s.69.39.92.76c.23.36.34.78.34 1.24 0 .59-.17 1.08-.52 1.47s-.87.63-1.56.73c.35.2.63.42.85.66s.53.67.91 1.28l.97 1.54h-1.91l-1.15-1.72c-.41-.61-.69-1-.84-1.16q-.225-.24-.48-.33c-.17-.06-.44-.09-.8-.09h-.32v3.3h-1.59Zm1.6-4.56h1.18c.77 0 1.24-.03 1.43-.1q.285-.105.45-.33c.11-.16.16-.35.16-.59 0-.27-.07-.48-.21-.64a.97.97 0 0 0-.6-.31c-.13-.02-.52-.03-1.16-.03h-1.24v2.01Z" style="fill:url(#linear-gradient26)"/><path d="M234.43 278.55c.03-2.11-.16-4.19-2.58-4.19-1.48 0-2.43.6-2.43 2.2 0 1.8 1.13 2.49 2.52 3.37 1.45.91 4.13 2.68 5.35 3.87 1.51 1.48 1.98 2.9 1.98 4.95 0 4.47-2.96 6.8-7.28 6.8-5.29 0-7.18-2.96-7.18-7.18v-1.73h4.41v1.39c-.09 2.3.6 3.97 2.77 3.97 1.86 0 2.74-.98 2.74-2.77 0-1.39-.63-2.33-1.76-3.12-2.3-1.8-5.17-3.09-6.96-5.45-.72-1.07-1.13-2.36-1.13-3.62 0-4.03 2.27-6.24 6.93-6.24 7.02 0 6.84 5.42 6.87 7.75zM242.96 294.99v-23.63h4.41v23.63zM262.24 271.37h4.41V295h-4.6l-3.43-8.41c-1.17-2.8-2.11-5.67-3.15-9.39h-.06c.16 1.95.35 4.35.47 6.74.13 2.36.22 4.73.22 6.62V295h-4.41v-23.63h4.57l3.43 8.6c1.13 2.74 2.08 5.54 3.15 9.39h.06c-.16-2.14-.31-4.44-.44-6.71s-.22-4.54-.22-6.65zM284.93 286.58l-.09 1.35c-.22 4.32-1.67 7.62-6.58 7.62-7.25 0-7.72-4.6-7.72-10.9v-3.37c.19-6.02.66-10.49 7.72-10.49 3.94.06 6.14 2.08 6.46 6.11.06.6.13 1.2.09 1.8h-4.35c-.19-1.51-.03-4.35-2.2-4.35-3.46 0-3.18 4.13-3.18 5.95v6.55c0 1.95.16 5.13 3.18 5.13 2.43 0 2.14-3.91 2.24-5.42h4.44ZM288.33 294.99v-23.63h12.41v3.46h-8v5.95h7.37v3.46h-7.37v7.28h8v3.46h-12.41ZM310.95 294.99c.03-1.01.16-2.65.38-4 .28-1.64 1.45-3.78 4.16-6.65l2.14-2.27c1.42-1.54 2.17-2.3 2.17-4.54s-.85-2.8-2.11-2.8c-.91 0-1.73.28-2.05 1.17-.44 1.04-.31 2.24-.35 3.34h-4.13v-.66c0-2.08-.09-7.37 6.71-7.31 3.72.03 6.33 2.33 6.33 6.11 0 2.61-.98 4.6-2.8 6.46l-3.46 3.59c-.91.94-2.27 2.49-2.3 4.09h8.22v3.46h-12.92ZM327.21 278.04c0-5.01 2.39-6.77 6.39-6.77s6.36 1.76 6.36 6.77v10.62c0 5.01-2.39 6.8-6.39 6.8s-6.36-1.8-6.36-6.8zm4.41 10.62c-.13 2.65.79 3.34 1.92 3.34s2.14-.69 2.02-3.34v-10.62c.13-2.61-.85-3.31-2.02-3.31s-2.05.69-1.92 3.31zM342.96 278.04c0-5.01 2.39-6.77 6.39-6.77s6.36 1.76 6.36 6.77v10.62c0 5.01-2.39 6.8-6.39 6.8s-6.36-1.8-6.36-6.8zm4.41 10.62c-.13 2.65.79 3.34 1.92 3.34s2.14-.69 2.02-3.34v-10.62c.13-2.61-.85-3.31-2.02-3.31s-2.05.69-1.92 3.31zM369.99 271.74v14.99h2.02v3.46h-2.02v4.79h-4.41v-4.79h-7.65v-3.46l7.15-14.99zm-4.41 15v-9.58h-.06l-4.35 9.58z" class="st16"/></svg>